<svg width="23" height="22" viewBox="0 0 23 22" fill="none" xmlns="http://www.w3.org/2000/svg">
<path fill-rule="evenodd" clip-rule="evenodd" d="M7.56546 0H15.8155C19.6118 0 22.6905 3.07862 22.6905 6.875V15.125C22.6905 18.9214 19.6118 22 15.8155 22H7.56546C3.76908 22 0.69046 18.9214 0.69046 15.125V6.875C0.69046 3.07862 3.76908 0 7.56546 0ZM15.8155 19.9375C18.4692 19.9375 20.628 17.7787 20.628 15.125V6.875C20.628 4.22125 18.4692 2.0625 15.8155 2.0625H7.56546C4.91171 2.0625 2.75296 4.22125 2.75296 6.875V15.125C2.75296 17.7787 4.91171 19.9375 7.56546 19.9375H15.8155Z" fill="white"/>
</svg>
